<svg width="17" height="17" viewBox="0 0 17 17" fill="none" xmlns="http://www.w3.org/2000/svg">
<path d="M11.0488 2.27241C11.8219 2.27472 12.5626 2.58284 13.1093 3.12948C13.6559 3.67612 13.964 4.41686 13.9664 5.18992V11.0243C13.964 11.7974 13.6559 12.5381 13.1093 13.0848C12.5626 13.6314 11.8219 13.9395 11.0488 13.9418H5.21445C4.44139 13.9395 3.70065 13.6314 3.15401 13.0848C2.60737 12.5381 2.29925 11.7974 2.29694 11.0243V5.18992C2.29925 4.41686 2.60737 3.67612 3.15401 3.12948C3.70065 2.58284 4.44139 2.27472 5.21445 2.27241H11.0488ZM11.0488 1.10559H5.21445C2.96803 1.10559 1.13013 2.94349 1.13013 5.18992V11.0243C1.13013 13.2707 2.96803 15.1086 5.21445 15.1086H11.0488C13.2953 15.1086 15.1332 13.2707 15.1332 11.0243V5.18992C15.1332 2.94349 13.2953 1.10559 11.0488 1.10559Z" fill="#202327"/>
<path d="M11.9258 5.19497C11.7522 5.19497 11.5825 5.14349 11.4382 5.04705C11.2938 4.95061 11.1813 4.81353 11.1149 4.65315C11.0485 4.49277 11.0311 4.3163 11.065 4.14604C11.0988 3.97579 11.1824 3.8194 11.3052 3.69665C11.4279 3.5739 11.5843 3.49031 11.7546 3.45644C11.9248 3.42257 12.1013 3.43996 12.2617 3.50639C12.4221 3.57282 12.5591 3.68531 12.6556 3.82965C12.752 3.97399 12.8035 4.14368 12.8035 4.31727C12.8037 4.4326 12.7812 4.54685 12.7372 4.65345C12.6932 4.76005 12.6285 4.8569 12.547 4.93845C12.4654 5.02 12.3686 5.08464 12.262 5.12866C12.1554 5.17268 12.0411 5.19522 11.9258 5.19497Z" fill="#202327"/>
<path d="M8.13089 5.77216C8.5925 5.77216 9.04375 5.90905 9.42756 6.1655C9.81138 6.42196 10.1105 6.78647 10.2872 7.21295C10.4638 7.63942 10.51 8.1087 10.42 8.56144C10.3299 9.01418 10.1076 9.43005 9.78124 9.75646C9.45483 10.0829 9.03896 10.3052 8.58622 10.3952C8.13348 10.4853 7.6642 10.439 7.23773 10.2624C6.81126 10.0857 6.44674 9.78659 6.19029 9.40278C5.93383 9.01896 5.79694 8.56772 5.79694 8.10611C5.79761 7.48731 6.04372 6.89405 6.48127 6.45649C6.91883 6.01893 7.51209 5.77283 8.13089 5.77216ZM8.13089 4.60535C7.43851 4.60535 6.76167 4.81066 6.18597 5.19533C5.61027 5.58 5.16157 6.12674 4.89661 6.76643C4.63164 7.40611 4.56232 8.10999 4.69739 8.78907C4.83247 9.46815 5.16589 10.0919 5.65548 10.5815C6.14507 11.0711 6.76884 11.4045 7.44793 11.5396C8.12701 11.6747 8.83089 11.6054 9.47057 11.3404C10.1103 11.0754 10.657 10.6267 11.0417 10.051C11.4263 9.47533 11.6317 8.79849 11.6317 8.10611C11.6317 7.17765 11.2628 6.28722 10.6063 5.6307C9.94978 4.97418 9.05935 4.60535 8.13089 4.60535Z" fill="#202327"/>
</svg>
