<svg width="30" height="30" viewBox="0 0 30 30" fill="none" xmlns="http://www.w3.org/2000/svg">
<path fill-rule="evenodd" clip-rule="evenodd" d="M3.74731 9.37449C3.74731 8.85586 4.16775 8.43542 4.68638 8.43542H25.3114C25.83 8.43542 26.2505 8.85586 26.2505 9.37449C26.2505 9.89313 25.83 10.3136 25.3114 10.3136H4.68638C4.16775 10.3136 3.74731 9.89313 3.74731 9.37449ZM3.74731 14.9996C3.74731 14.481 4.16775 14.0606 4.68638 14.0606H25.3114C25.83 14.0606 26.2505 14.481 26.2505 14.9996C26.2505 15.5183 25.83 15.9387 25.3114 15.9387H4.68638C4.16775 15.9387 3.74731 15.5183 3.74731 14.9996ZM3.74731 20.6248C3.74731 20.1062 4.16775 19.6857 4.68638 19.6857H25.3114C25.83 19.6857 26.2505 20.1062 26.2505 20.6248C26.2505 21.1434 25.83 21.5639 25.3114 21.5639H4.68638C4.16775 21.5639 3.74731 21.1434 3.74731 20.6248Z" fill="#202327"/>
</svg>
