<svg width="20" height="20" viewBox="0 0 20 20" fill="none" xmlns="http://www.w3.org/2000/svg">
<path d="M10.0017 1.25146C5.16968 1.25146 1.25171 5.16944 1.25171 10.0015C1.25171 13.5835 3.40796 16.6616 6.48999 18.0171C6.46655 17.4077 6.48608 16.6733 6.64233 16.0093C6.8103 15.2983 7.76733 11.2398 7.76733 11.2398C7.76733 11.2398 7.48608 10.6812 7.48608 9.85694C7.48608 8.56006 8.23608 7.59131 9.17359 7.59131C9.97046 7.59131 10.3533 8.18897 10.3533 8.90381C10.3533 9.70459 9.84155 10.8999 9.57983 12.0093C9.36109 12.939 10.0447 13.6929 10.9626 13.6929C12.6189 13.6929 13.7361 11.564 13.7361 9.04053C13.7361 7.12256 12.4431 5.68897 10.0955 5.68897C7.44312 5.68897 5.78687 7.66944 5.78687 9.88037C5.78687 10.6421 6.01343 11.1812 6.36499 11.5952C6.52515 11.7866 6.54858 11.8647 6.48999 12.0835C6.44702 12.2437 6.35327 12.6304 6.3103 12.7866C6.25171 13.0093 6.07202 13.0874 5.8728 13.0054C4.65015 12.5054 4.07983 11.1694 4.07983 9.66162C4.07983 7.17725 6.17749 4.19678 10.3337 4.19678C13.6736 4.19678 15.8728 6.61475 15.8728 9.2085C15.8728 12.6421 13.9626 15.2046 11.1501 15.2046C10.2048 15.2046 9.31812 14.6929 9.01343 14.1148C9.01343 14.1148 8.50562 16.1304 8.39624 16.521C8.21265 17.1968 7.84937 17.8687 7.51733 18.396C8.32276 18.6336 9.15806 18.7546 9.9978 18.7554C14.8298 18.7554 18.7478 14.8374 18.7478 10.0054C18.7478 5.17334 14.8337 1.25146 10.0017 1.25146Z" fill="#202327"/>
</svg>
